<?xml version="1.0" encoding="utf-8"?>
<!-- Generator: Adobe Illustrator 17.0.0, SVG Export Plug-In . SVG Version: 6.00 Build 0)  -->
<!DOCTYPE svg PUBLIC "-//W3C//DTD SVG 1.1//EN" "http://www.w3.org/Graphics/SVG/1.1/DTD/svg11.dtd">
<svg version="1.1" id="Layer_1" xmlns="http://www.w3.org/2000/svg" xmlns:xlink="http://www.w3.org/1999/xlink" x="0px" y="0px"
	 width="84px" height="118px" viewBox="0 0 84 118" enable-background="new 0 0 84 118" xml:space="preserve">
<path fill="#808080" d="M6.134,89.001c0.253-0.16,0.759,0.419,0.759,0.419l2.766,2.845c0,0,0.38,0.387,0.38,0.711
	s-0.405,0.726-0.405,0.726l-2.768,2.847c0,0-0.494,0.541-0.738,0.402c-0.178-0.102-0.166-0.555-0.166-0.856s0-6.316,0-6.316
	S5.965,89.108,6.134,89.001z"/>
<path fill="#808080" d="M82.441,72.548c2.259,3.574,1.11,8.27-2.561,10.469l-0.57,0.341l-1.954-3.092l0.57-0.341
	c1.922-1.151,2.525-3.608,1.344-5.477c-1.181-1.869-3.706-2.453-5.628-1.301l0.855,1.353c0,0,0.267,0.446,0.122,0.646
	s-0.795,0.102-0.795,0.102l-4.616-0.951c0,0-0.388-0.084-0.535-0.356s-0.028-0.593-0.028-0.593l1.181-4.336
	c0,0,0.158-0.616,0.468-0.652s0.622,0.473,0.622,0.473l0.772,1.221C75.357,67.855,80.182,68.974,82.441,72.548z"/>
<g>
	<path fill="#808080" d="M54.965,74.461c-0.16-0.253,0.419-0.759,0.419-0.759l2.845-2.766c0,0,0.387-0.38,0.711-0.38
		s0.726,0.405,0.726,0.405l2.847,2.768c0,0,0.541,0.494,0.402,0.738c-0.102,0.178-0.555,0.166-0.856,0.166s-6.316,0-6.316,0
		S55.072,74.63,54.965,74.461z"/>
	<path fill="#808080" d="M62.909,77.443c0.16,0.253-0.419,0.759-0.419,0.759l-2.845,2.766c0,0-0.387,0.38-0.711,0.38
		s-0.726-0.405-0.726-0.405l-2.847-2.768c0,0-0.541-0.494-0.402-0.738c0.102-0.178,0.555-0.166,0.856-0.166s6.316,0,6.316,0
		S62.802,77.274,62.909,77.443z"/>
</g>
<path fill="#808080" d="M49,74.3l-4.837-0.739L42,68.952l-2.163,4.609L35,74.3l3.5,3.587l-0.826,5.065L42,80.56l4.326,2.392
	L45.5,77.887L49,74.3z"/>
<path fill="#808080" d="M21.028,77.819c-0.16-0.253,0.419-0.759,0.419-0.759l2.845-2.766c0,0,0.387-0.38,0.711-0.38
	s0.726,0.405,0.726,0.405l2.847,2.768c0,0,0.541,0.494,0.402,0.738c-0.102,0.178-0.555,0.166-0.856,0.166s-6.316,0-6.316,0
	S21.135,77.988,21.028,77.819z"/>
<path fill="#808080" d="M15.151,80.053l-5.694-9.89c0,0-0.803-1.447-1.452-1.447c-0.648,0-1.422,1.359-1.422,1.359l-5.69,9.883
	c0,0-1.157,1.81-0.837,2.712c0.214,0.604,1.553,0.613,1.553,0.613s12.031,0,12.633,0s1.509,0.043,1.713-0.594
	C16.232,81.818,15.151,80.053,15.151,80.053z M9.006,72.504l-0.318,6.174H7.324l-0.305-6.174H9.006z M8.76,81.513
	c-0.181,0.178-0.435,0.268-0.763,0.268c-0.336,0-0.592-0.09-0.766-0.271c-0.174-0.18-0.262-0.431-0.262-0.751
	c0-0.324,0.086-0.575,0.259-0.754c0.172-0.178,0.429-0.268,0.769-0.268c0.34,0,0.598,0.088,0.773,0.265
	c0.174,0.177,0.262,0.429,0.262,0.757C9.031,81.084,8.941,81.335,8.76,81.513z"/>
<path fill="#808080" d="M68,59c0,4.418,3.582,8,8,8s8-3.582,8-8s-3.582-8-8-8S68,54.582,68,59z M71.014,58.091
	c0-0.373,0.213-0.675,0.476-0.675h4.672v-1.279c0,0-0.027-0.434,0.125-0.517c0.194-0.105,0.498,0.109,0.498,0.109l3.846,2.886
	c0,0,0.351,0.238,0.355,0.388c0.004,0.15-0.34,0.378-0.34,0.378l-3.85,2.888c0,0-0.295,0.195-0.476,0.123
	c-0.186-0.074-0.157-0.383-0.157-0.383V60.59H71.49c-0.263,0-0.476-0.302-0.476-0.675V58.091z"/>
<path fill="#808080" d="M59,51c-4.418,0-8,3.582-8,8s3.582,8,8,8s8-3.582,8-8S63.418,51,59,51z M63.986,59.915
	c0,0.373-0.213,0.675-0.476,0.675h-4.672v1.419c0,0,0.029,0.309-0.157,0.383c-0.182,0.073-0.476-0.123-0.476-0.123l-3.85-2.888
	c0,0-0.345-0.228-0.34-0.378c0.004-0.15,0.355-0.388,0.355-0.388l3.846-2.886c0,0,0.304-0.214,0.498-0.109
	c0.152,0.083,0.125,0.517,0.125,0.517v1.279h4.672c0.263,0,0.476,0.302,0.476,0.675L63.986,59.915L63.986,59.915z"/>
<g>
	<path fill="#808080" d="M41.205,63.481c0-2.549,1.932-4.658,4.445-5.009c-0.008-0.008-0.015-0.016-0.023-0.024
		c-0.247-0.25-0.537-0.413-0.88-0.469c-0.367-0.059-0.733-0.123-1.101-0.168c-0.366-0.045-0.731-0.095-1.096-0.147
		c-0.112-0.016-0.227-0.014-0.342-0.054c0.893-0.64,1.421-1.512,1.535-2.63c0.115-1.12-0.224-2.1-0.979-2.895
		c-1.393-1.467-3.689-1.492-5.074,0.208c-0.669,0.821-0.933,1.784-0.781,2.852c0.15,1.052,0.681,1.861,1.533,2.47
		c-0.157,0.023-0.299,0.047-0.441,0.065c-0.283,0.036-0.567,0.064-0.849,0.103c-0.363,0.05-0.725,0.104-1.086,0.163
		c-0.201,0.033-0.403,0.068-0.59,0.162c-0.335,0.168-0.577,0.45-0.807,0.741c-0.203,0.258-0.372,0.54-0.498,0.849
		c-0.087,0.213-0.164,0.431-0.166,0.661c-0.007,1.085-0.003,2.17-0.004,3.256c0,0.052,0.013,0.086,0.06,0.112
		c0.107,0.059,0.204,0.137,0.28,0.233c0.122,0.155,0.278,0.212,0.463,0.212c2.15,0,4.3,0,6.451,0
		C41.223,63.946,41.205,63.715,41.205,63.481z"/>
	<path fill="#808080" d="M46.393,59.962c-1.992,0-3.607,1.576-3.607,3.519c0,1.944,1.615,3.519,3.607,3.519S50,65.424,50,63.481
		C50,61.537,48.385,59.962,46.393,59.962z M48.877,63.823c0,0.186-0.156,0.338-0.346,0.338h-1.44v1.404
		c0,0.186-0.156,0.338-0.346,0.338h-0.702c-0.191,0-0.346-0.152-0.346-0.338v-1.404h-1.44c-0.191,0-0.346-0.152-0.346-0.338v-0.685
		c0-0.186,0.156-0.338,0.346-0.338h1.44v-1.405c0-0.186,0.156-0.338,0.346-0.338h0.702c0.191,0,0.346,0.152,0.346,0.338V62.8h1.44
		c0.191,0,0.346,0.152,0.346,0.338V63.823z"/>
</g>
<path fill="#808080" d="M30.996,59.922c0,0.214-0.174,0.388-0.388,0.388h-4.302v4.302c0,0.214-0.174,0.388-0.388,0.388h-1.844
	c-0.214,0-0.388-0.174-0.388-0.388V60.31h-4.302c-0.214,0-0.388-0.174-0.388-0.388v-1.844c0-0.214,0.174-0.388,0.388-0.388h4.302
	v-4.302c0-0.214,0.174-0.388,0.388-0.388h1.844c0.214,0,0.388,0.174,0.388,0.388v4.302h4.302c0.214,0,0.388,0.174,0.388,0.388
	V59.922z"/>
<g>
	<path fill="#808080" d="M5.621,59.036c-1.079-0.741-1.751-1.724-1.94-3.002c-0.192-1.298,0.142-2.468,0.989-3.466
		c1.752-2.065,4.659-2.035,6.422-0.252c0.956,0.967,1.384,2.157,1.239,3.518c-0.145,1.358-0.812,2.417-1.943,3.195
		c0.146,0.048,0.291,0.046,0.433,0.065c0.462,0.063,0.924,0.124,1.387,0.179c0.467,0.055,0.93,0.132,1.394,0.204
		c0.435,0.068,0.801,0.265,1.114,0.57c0.413,0.401,0.751,0.858,1.002,1.377c0.181,0.374,0.284,0.765,0.281,1.188
		c-0.008,1.199-0.004,2.397-0.001,3.596c0,0.128-0.01,0.219-0.145,0.298c-0.201,0.118-0.382,0.273-0.585,0.393
		c-0.111,0.066-0.226,0.103-0.357,0.103c-4.631-0.001-9.263-0.001-13.894-0.001c-0.234,0-0.431-0.07-0.586-0.258
		c-0.096-0.117-0.219-0.212-0.355-0.284C0.017,66.428,0,66.387,0,66.324c0.001-1.318-0.004-2.637,0.005-3.955
		c0.002-0.279,0.1-0.544,0.21-0.803c0.16-0.376,0.374-0.719,0.631-1.032c0.291-0.354,0.597-0.695,1.021-0.9
		c0.236-0.114,0.492-0.156,0.747-0.196C3.071,59.366,3.53,59.3,3.989,59.24c0.357-0.047,0.717-0.082,1.074-0.125
		C5.243,59.093,5.423,59.064,5.621,59.036z"/>
</g>
<g>
	<path fill="#808080" d="M82.517,34.792h-8.671c-0.819,0-1.483,0.664-1.483,1.483s0.664,1.483,1.483,1.483h7.188v8.557h-7.188
		c-0.819,0-1.483,0.664-1.483,1.483s0.664,1.483,1.483,1.483h8.671c0.819,0,1.483-0.664,1.483-1.483V36.275
		C84,35.456,83.336,34.792,82.517,34.792z"/>
	<path fill="#808080" d="M77.185,41.02h-5.701l0.73-0.73c0.401-0.401,0.401-1.05,0-1.451s-1.05-0.401-1.451,0L68.3,41.302
		c-0.203,0.203-0.302,0.469-0.3,0.735c0,0.037,0.001,0.074,0.005,0.11c0.001,0.015,0.004,0.03,0.006,0.045
		c0.003,0.018,0.005,0.036,0.008,0.054c0.003,0.017,0.008,0.034,0.012,0.051c0.004,0.016,0.007,0.031,0.012,0.046
		c0.005,0.017,0.011,0.033,0.017,0.049c0.006,0.015,0.011,0.031,0.017,0.046c0.006,0.015,0.014,0.03,0.021,0.044
		c0.007,0.016,0.014,0.031,0.022,0.047c0.008,0.014,0.016,0.028,0.024,0.041c0.009,0.015,0.017,0.03,0.027,0.045
		s0.021,0.029,0.032,0.044c0.009,0.012,0.018,0.025,0.027,0.037c0.021,0.026,0.044,0.051,0.068,0.075l2.463,2.463
		c0.401,0.401,1.05,0.401,1.451,0c0.401-0.401,0.401-1.05,0-1.451L71.5,43.071h5.683c0.567,0,1.026-0.459,1.026-1.026
		C78.211,41.479,77.751,41.02,77.185,41.02z"/>
</g>
<g>
	<polygon fill="#808080" points="53.339,34.885 61.879,34.885 61.879,34 52.453,34 52.453,46.332 53.339,46.332 	"/>
	<polygon fill="#808080" points="55.236,36.783 63.65,36.783 63.65,35.771 54.224,35.771 54.224,48.103 55.236,48.103 	"/>
	<rect x="56.121" y="37.668" fill="#808080" width="9.426" height="12.332"/>
</g>
<g>
	<path fill="#808080" d="M43.257,45.548c-2.006-0.098-3.484-1.008-4.352-2.85c-0.034-0.072-0.088-0.148-0.007-0.225
		c0.367-0.35,0.675-0.769,1.146-0.999c0.044-0.022,0.089-0.044,0.135-0.061c0.472-0.176,0.481-0.164,0.653,0.304
		c0.336,0.91,0.994,1.453,1.946,1.61c0.843,0.139,1.568-0.134,2.17-0.731c0.714-0.707,1.422-1.42,2.132-2.131
		c1.015-1.016,1.006-2.596-0.02-3.593c-0.836-0.812-2.262-0.886-3.19-0.164c-0.502,0.391-0.913,0.878-1.365,1.32
		c-0.131,0.128-0.236,0.169-0.426,0.12c-0.813-0.211-1.636-0.224-2.46-0.049c-0.072,0.015-0.154,0.055-0.2-0.022
		c-0.042-0.07,0.041-0.115,0.077-0.165c0.053-0.073,0.104-0.148,0.168-0.212c0.831-0.834,1.646-1.686,2.503-2.493
		c0.687-0.647,1.539-0.979,2.471-1.12c0.942-0.143,1.834,0.037,2.68,0.431c0.854,0.397,1.519,1.028,2.002,1.838
		c0.495,0.832,0.737,1.741,0.671,2.705c-0.074,1.084-0.464,2.048-1.202,2.87c-0.644,0.718-1.347,1.375-2.022,2.062
		c-0.748,0.762-1.63,1.29-2.697,1.471C43.802,45.507,43.536,45.564,43.257,45.548z"/>
	<path fill="#808080" d="M44.628,45.993c-0.169,0.298-0.401,0.522-0.62,0.75c-0.587,0.612-1.193,1.207-1.796,1.803
		c-0.976,0.966-2.139,1.518-3.526,1.489c-1.546-0.032-2.805-0.673-3.739-1.912c-0.653-0.867-0.983-1.86-0.944-2.942
		c0.043-1.193,0.451-2.261,1.304-3.126c0.734-0.745,1.472-1.487,2.22-2.218c0.754-0.738,1.67-1.124,2.714-1.258
		c0.904-0.116,1.757,0.049,2.558,0.43c1.049,0.5,1.827,1.293,2.291,2.374c0.032,0.074,0.085,0.149,0.003,0.225
		c-0.372,0.345-0.666,0.779-1.147,0.998c-0.037,0.017-0.074,0.037-0.112,0.052c-0.458,0.18-0.481,0.17-0.65-0.29
		c-0.626-1.705-2.815-2.198-4.103-0.922c-0.731,0.725-1.459,1.453-2.184,2.184c-0.994,1.003-0.975,2.599,0.036,3.58
		c0.908,0.88,2.497,0.881,3.402-0.002c0.377-0.368,0.752-0.739,1.116-1.12c0.147-0.153,0.285-0.199,0.5-0.145
		c0.807,0.202,1.621,0.221,2.435,0.032C44.462,45.958,44.532,45.943,44.628,45.993z"/>
</g>
<g>
	<path fill="#808080" d="M25.005,36.925c1.835,0.049,3.511,0.592,4.911,1.777c1.01,0.856,1.918,1.834,2.856,2.772
		c0.31,0.31,0.296,0.825-0.012,1.14c-0.747,0.764-1.493,1.53-2.268,2.266c-1.057,1.003-2.285,1.714-3.722,2.03
		c-1.703,0.374-3.35,0.23-4.956-0.474c-1.002-0.439-1.84-1.089-2.608-1.846c-0.629-0.62-1.251-1.248-1.874-1.873
		c-0.441-0.442-0.445-0.918-0.009-1.354c0.662-0.664,1.321-1.332,1.99-1.989c1.271-1.246,2.746-2.098,4.542-2.316
		C24.238,37.013,24.621,36.97,25.005,36.925z M28.531,42.055c-0.012-1.951-1.603-3.525-3.485-3.549
		c-1.977-0.025-3.574,1.607-3.582,3.513c-0.008,1.947,1.603,3.541,3.513,3.549C26.925,45.576,28.504,43.965,28.531,42.055z"/>
	<path fill="#808080" d="M26.567,42.027c0.001,0.853-0.721,1.581-1.57,1.581c-0.849,0-1.573-0.726-1.573-1.578
		c0.001-0.832,0.726-1.562,1.553-1.564C25.835,40.464,26.566,41.182,26.567,42.027z"/>
</g>
<path fill="#808080" d="M8,34.5c-4.142,0-7.5,3.358-7.5,7.5s3.358,7.5,7.5,7.5s7.5-3.358,7.5-7.5S12.142,34.5,8,34.5z M8.72,46.369
	c-0.23,0.207-0.543,0.31-0.94,0.31c-0.41,0-0.73-0.102-0.962-0.307c-0.232-0.205-0.348-0.497-0.348-0.878
	c0-0.381,0.111-0.674,0.332-0.881c0.221-0.207,0.547-0.31,0.977-0.31c0.414,0,0.731,0.105,0.953,0.313
	c0.221,0.209,0.332,0.502,0.332,0.878S8.949,46.162,8.72,46.369z M10.743,40.886c-0.234,0.366-0.607,0.713-1.12,1.039
	c-0.434,0.281-0.706,0.487-0.816,0.617s-0.164,0.284-0.164,0.462v0.316H6.737v-0.534c0-0.405,0.083-0.748,0.248-1.027
	s0.459-0.551,0.881-0.816c0.335-0.211,0.576-0.401,0.723-0.571c0.147-0.17,0.22-0.364,0.22-0.583c0-0.174-0.079-0.311-0.236-0.413
	c-0.157-0.101-0.362-0.152-0.614-0.152c-0.625,0-1.355,0.221-2.191,0.664L4.905,38.2c1.03-0.587,2.106-0.881,3.227-0.881
	c0.922,0,1.647,0.203,2.172,0.608c0.525,0.405,0.788,0.958,0.788,1.657C11.093,40.087,10.977,40.52,10.743,40.886z"/>
<g>
	<rect x="73.994" y="17" fill="#808080" width="4.012" height="4.012"/>
	<rect x="73.994" y="22.994" fill="#808080" width="4.012" height="4.012"/>
	<rect x="73.994" y="28.988" fill="#808080" width="4.012" height="4.012"/>
</g>
<path fill="#808080" d="M62.972,24.181c0.16,0.253-0.419,0.759-0.419,0.759l-2.845,2.766c0,0-0.387,0.38-0.711,0.38
	s-0.726-0.405-0.726-0.405l-2.847-2.768c0,0-0.541-0.494-0.402-0.738c0.102-0.178,0.555-0.166,0.856-0.166s6.316,0,6.316,0
	S62.865,24.012,62.972,24.181z"/>
<g>
	<path fill="#808080" d="M35.7,22.152c-0.011-0.019-0.021-0.039-0.035-0.058c-0.211-0.297-0.426-0.592-0.659-0.872
		c-0.103-0.124-0.111-0.186-0.008-0.311c0.31-0.374,0.657-0.712,1.027-1.027c0.071-0.06,0.135-0.065,0.213-0.01
		c0.296,0.207,0.578,0.433,0.858,0.661c0.129,0.105,0.124,0.104,0.272,0.025c0.161-0.086,0.329-0.156,0.507-0.202
		c0.052-0.013,0.078-0.034,0.084-0.091c0.035-0.305,0.059-0.612,0.118-0.915c0.023-0.117,0.046-0.233,0.096-0.343
		c0.028-0.062,0.07-0.092,0.138-0.092c0.473,0.001,0.945,0.001,1.418-0.001c0.059,0,0.092,0.024,0.116,0.075
		c0.1,0.21,0.134,0.435,0.163,0.662c0.026,0.203,0.054,0.406,0.076,0.61c0.006,0.054,0.033,0.075,0.077,0.089
		c0.202,0.064,0.403,0.133,0.586,0.244c0.047,0.028,0.083,0.007,0.118-0.02c0.294-0.226,0.607-0.426,0.892-0.666
		c0.122-0.103,0.166-0.088,0.291,0.017c0.194,0.162,0.363,0.35,0.55,0.52c0.171,0.156,0.318,0.338,0.474,0.51
		c0.076,0.084,0.028,0.162-0.024,0.232c-0.123,0.168-0.25,0.334-0.377,0.5c-0.092,0.121-0.185,0.242-0.281,0.36
		c-0.042,0.052-0.055,0.097-0.02,0.161c0.107,0.191,0.194,0.393,0.256,0.603c0.023,0.077,0.079,0.092,0.142,0.098
		c0.356,0.033,0.708,0.094,1.055,0.182c0.038,0.01,0.075,0.025,0.113,0.038c0.079,0.027,0.111,0.079,0.11,0.166
		c-0.004,0.443-0.001,0.885-0.002,1.328c0,0.12-0.04,0.179-0.156,0.212c-0.252,0.072-0.507,0.128-0.769,0.148
		c-0.132,0.01-0.263,0.027-0.395,0.04c-0.049,0.005-0.08,0.03-0.095,0.075c-0.07,0.208-0.151,0.411-0.256,0.604
		c-0.024,0.045-0.017,0.08,0.012,0.118c0.23,0.299,0.443,0.612,0.694,0.895c0.071,0.08,0.073,0.145,0.005,0.23
		c-0.265,0.33-0.569,0.622-0.881,0.906c-0.047,0.042-0.093,0.085-0.142,0.124c-0.186,0.149-0.166,0.116-0.331-0.001
		c-0.286-0.203-0.557-0.427-0.833-0.644c-0.055-0.043-0.102-0.05-0.17-0.015c-0.171,0.087-0.346,0.168-0.531,0.223
		c-0.078,0.023-0.105,0.065-0.11,0.15c-0.015,0.264-0.059,0.525-0.105,0.786c-0.023,0.132-0.069,0.255-0.11,0.381
		c-0.028,0.086-0.079,0.125-0.176,0.124c-0.436-0.005-0.872-0.002-1.308-0.002c-0.16,0-0.195-0.024-0.243-0.176
		c-0.083-0.26-0.112-0.53-0.146-0.799c-0.015-0.125-0.028-0.25-0.04-0.375c-0.004-0.038-0.019-0.058-0.058-0.069
		c-0.206-0.057-0.4-0.141-0.586-0.245c-0.064-0.036-0.11-0.025-0.161,0.015c-0.288,0.228-0.579,0.453-0.865,0.684
		c-0.083,0.067-0.155,0.08-0.238,0.009c-0.06-0.052-0.127-0.096-0.184-0.152c-0.278-0.271-0.556-0.541-0.804-0.841
		c-0.141-0.17-0.148-0.171-0.018-0.352c0.203-0.282,0.411-0.561,0.621-0.839c0.034-0.045,0.038-0.081,0.013-0.126
		c-0.111-0.205-0.195-0.421-0.269-0.641c-0.022-0.065-0.067-0.079-0.119-0.086c-0.223-0.029-0.446-0.055-0.67-0.083
		c-0.161-0.02-0.319-0.057-0.475-0.103c-0.099-0.03-0.148-0.087-0.146-0.203c0.007-0.443,0.005-0.885,0.001-1.328
		c-0.001-0.094,0.032-0.147,0.117-0.183c0.17-0.072,0.348-0.108,0.528-0.132c0.236-0.032,0.473-0.056,0.71-0.082
		c0.033-0.004,0.055-0.015,0.065-0.05c0.061-0.221,0.137-0.437,0.262-0.631C35.689,22.181,35.693,22.168,35.7,22.152z
		 M40.515,23.947c0.013-0.836-0.681-1.48-1.456-1.5c-0.81-0.021-1.541,0.603-1.54,1.498c0,0.8,0.603,1.487,1.487,1.503
		C39.872,25.463,40.529,24.767,40.515,23.947z"/>
	<path fill="#808080" d="M44.868,30.982c0.002-0.226,0.062-0.417,0.094-0.613c0.01-0.06,0.001-0.098-0.044-0.139
		c-0.119-0.107-0.23-0.222-0.315-0.357c-0.031-0.049-0.07-0.057-0.118-0.053c-0.242,0.019-0.484,0.02-0.727,0.021
		c-0.09,0.001-0.131-0.031-0.149-0.12c-0.095-0.46-0.222-0.913-0.31-1.375c-0.018-0.093,0.004-0.157,0.098-0.2
		c0.202-0.093,0.4-0.195,0.617-0.247c0.076-0.018,0.121-0.058,0.132-0.138c0.024-0.166,0.089-0.318,0.157-0.469
		c0.019-0.041,0.018-0.068-0.011-0.107c-0.129-0.169-0.243-0.347-0.351-0.53c-0.089-0.15-0.083-0.193,0.039-0.32
		c0.293-0.305,0.62-0.569,0.938-0.846c0.174-0.151,0.187-0.139,0.376-0.002c0.145,0.105,0.281,0.221,0.414,0.341
		c0.054,0.049,0.105,0.072,0.179,0.043c0.148-0.059,0.307-0.081,0.462-0.115c0.048-0.011,0.071-0.031,0.091-0.076
		c0.102-0.224,0.219-0.439,0.365-0.638c0.043-0.059,0.09-0.074,0.162-0.059c0.427,0.088,0.838,0.224,1.239,0.393
		c0.219,0.092,0.276,0.196,0.228,0.436c-0.032,0.162-0.061,0.325-0.098,0.486c-0.01,0.043,0,0.065,0.03,0.093
		c0.129,0.12,0.25,0.247,0.351,0.393c0.063,0.09,0.163,0.05,0.24,0.039c0.193-0.026,0.385-0.005,0.578-0.014
		c0.065-0.003,0.095,0.04,0.118,0.09c0.097,0.212,0.155,0.436,0.207,0.663c0.055,0.239,0.093,0.481,0.134,0.722
		c0.023,0.134-0.005,0.189-0.16,0.255c-0.161,0.069-0.324,0.138-0.49,0.193c-0.118,0.039-0.19,0.096-0.209,0.228
		c-0.015,0.103-0.057,0.205-0.1,0.301c-0.042,0.093-0.033,0.164,0.03,0.246c0.128,0.165,0.238,0.343,0.331,0.531
		c0.039,0.078,0.03,0.134-0.03,0.204c-0.281,0.327-0.623,0.585-0.946,0.865c-0.01,0.009-0.02,0.017-0.03,0.027
		c-0.169,0.172-0.15,0.186-0.375,0.023c-0.147-0.107-0.284-0.228-0.421-0.348c-0.05-0.044-0.092-0.062-0.16-0.043
		c-0.156,0.044-0.312,0.089-0.473,0.115c-0.057,0.009-0.1,0.033-0.124,0.096c-0.079,0.209-0.2,0.396-0.314,0.587
		c-0.055,0.092-0.129,0.109-0.219,0.087c-0.413-0.099-0.819-0.221-1.208-0.392c-0.021-0.009-0.042-0.02-0.063-0.03
		C44.922,31.172,44.835,31.101,44.868,30.982z M46.649,27.342c-0.502-0.042-0.993,0.426-0.987,0.965
		c0.005,0.546,0.438,0.991,0.966,1.001c0.523,0.01,1.007-0.383,1.013-0.989C47.647,27.77,47.212,27.313,46.649,27.342z"/>
	<path fill="#808080" d="M49.978,21.088c0.002,0.22,0.002,0.406,0.017,0.592c0.015,0.185-0.016,0.209-0.189,0.274
		c-0.166,0.063-0.339,0.091-0.513,0.113c-0.062,0.008-0.101,0.029-0.125,0.093c-0.05,0.133-0.109,0.264-0.189,0.383
		c-0.032,0.047-0.025,0.09,0,0.139c0.081,0.163,0.157,0.329,0.239,0.491c0.048,0.094,0.048,0.168-0.04,0.245
		c-0.236,0.206-0.496,0.376-0.757,0.546c-0.103,0.067-0.21,0.127-0.311,0.196c-0.084,0.058-0.152,0.04-0.22-0.025
		c-0.132-0.127-0.257-0.26-0.368-0.405c-0.057-0.074-0.111-0.115-0.215-0.082c-0.116,0.038-0.238,0.056-0.362,0.021
		c-0.077-0.021-0.127,0.018-0.171,0.085c-0.111,0.169-0.221,0.338-0.359,0.487c-0.057,0.061-0.113,0.071-0.186,0.04
		c-0.393-0.17-0.781-0.349-1.14-0.585c-0.09-0.059-0.117-0.128-0.085-0.227c0.057-0.18,0.11-0.361,0.168-0.541
		c0.016-0.05,0.011-0.084-0.027-0.124c-0.083-0.087-0.154-0.186-0.197-0.297c-0.045-0.114-0.127-0.145-0.233-0.14
		c-0.137,0.007-0.272-0.015-0.407-0.023c-0.209-0.013-0.33-0.144-0.334-0.358c-0.003-0.163-0.004-0.326,0-0.489
		c0.004-0.213-0.017-0.424-0.032-0.636c-0.006-0.087,0.057-0.116,0.115-0.143c0.151-0.071,0.315-0.101,0.479-0.124
		c0.052-0.007,0.105-0.015,0.157-0.021c0.061-0.007,0.081-0.053,0.097-0.101c0.043-0.13,0.104-0.251,0.177-0.366
		c0.032-0.05,0.04-0.097,0.011-0.157c-0.078-0.161-0.149-0.325-0.219-0.49c-0.071-0.165-0.07-0.175,0.074-0.291
		c0.317-0.258,0.656-0.483,1.016-0.678c0.131-0.071,0.159-0.069,0.255,0.043c0.123,0.143,0.266,0.269,0.373,0.426
		c0.024,0.035,0.053,0.053,0.101,0.039c0.152-0.042,0.307-0.051,0.464-0.042c0.053,0.003,0.087-0.017,0.117-0.059
		c0.116-0.161,0.236-0.32,0.351-0.482c0.052-0.074,0.112-0.096,0.196-0.06c0.312,0.131,0.618,0.275,0.916,0.437
		c0.099,0.054,0.191,0.12,0.287,0.178c0.062,0.037,0.073,0.085,0.051,0.151c-0.062,0.189-0.117,0.38-0.179,0.568
		c-0.018,0.056-0.019,0.1,0.019,0.147c0.09,0.111,0.163,0.234,0.232,0.359c0.032,0.059,0.078,0.077,0.145,0.08
		c0.185,0.007,0.37,0.018,0.552,0.058c0.147,0.032,0.206,0.109,0.232,0.259C49.99,20.771,49.97,20.947,49.978,21.088z
		 M46.083,21.321c-0.03,0.477,0.359,0.906,0.882,0.906c0.514,0,0.916-0.366,0.918-0.9c0.002-0.528-0.378-0.909-0.91-0.915
		C46.458,20.405,46.045,20.858,46.083,21.321z"/>
</g>
<g>
	<path fill="#808080" d="M24.993,25.227c-2.597,0-5.194,0-7.79,0c-0.033,0-0.067-0.003-0.1,0c-0.071,0.006-0.101-0.021-0.1-0.096
		c0.002-1.072-0.009-2.144,0.006-3.216c0.006-0.44,0.383-0.817,0.792-0.896c0.082-0.016,0.164-0.022,0.247-0.022
		c1.152,0.001,2.304,0.001,3.456,0c0.195,0,0.174,0.019,0.174-0.179c0.001-0.609,0.004-1.219-0.001-1.828
		c-0.003-0.338,0.301-0.655,0.649-0.654c1.784,0.008,3.569,0.008,5.353,0c0.326-0.002,0.681,0.318,0.671,0.67
		c-0.019,0.615-0.005,1.232-0.005,1.848c0,0.143,0,0.143,0.14,0.143c1.169,0,2.337,0.005,3.506-0.002
		c0.548-0.003,1.015,0.472,1.011,1.014C32.994,23.031,33,24.053,33,25.075c0,0.15,0,0.15-0.154,0.15
		C30.226,25.227,27.609,25.227,24.993,25.227z M24.99,20.998c0.629,0,1.257-0.001,1.886,0.002c0.083,0,0.118-0.018,0.117-0.11
		c-0.005-0.363-0.004-0.725-0.001-1.088c0.001-0.08-0.02-0.11-0.106-0.11c-1.257,0.002-2.515,0.002-3.772,0
		c-0.085,0-0.107,0.029-0.106,0.11c0.003,0.353,0.001,0.705,0.001,1.058c0,0.138,0,0.139,0.134,0.139
		C23.759,20.998,24.375,20.998,24.99,20.998z"/>
	<path fill="#808080" d="M25.003,31.659c-2.347,0-4.693-0.004-7.04,0.003c-0.426,0.001-0.862-0.382-0.94-0.791
		c-0.014-0.076-0.02-0.151-0.02-0.227c0.001-1.428,0-2.856,0-4.284c0-0.147,0-0.148,0.147-0.148c1.964,0,3.928,0,5.892,0
		c0.147,0,0.147,0,0.147,0.147c0,0.466,0,0.932,0,1.398c0,0.551,0.426,1.036,0.973,1.114c0.086,0.012,0.171,0.017,0.258,0.017
		c0.419,0,0.839,0,1.258,0c0.541,0,1.047-0.432,1.129-0.964c0.016-0.101,0.022-0.205,0.023-0.307
		c0.003-0.389,0.001-0.779,0.001-1.168c0-0.03,0.002-0.06-0.002-0.09c-0.017-0.147-0.018-0.147,0.127-0.147c1.964,0,3.928,0,5.892,0
		c0.149,0,0.15,0,0.15,0.145c0,1.445,0.001,2.889,0,4.334c0,0.498-0.449,0.971-0.964,0.97C29.69,31.656,27.346,31.659,25.003,31.659
		z"/>
	<path fill="#808080" d="M24.998,27.884c-0.216,0-0.432,0.001-0.648,0c-0.137-0.001-0.195-0.058-0.195-0.193
		c-0.001-0.422-0.001-0.845,0-1.267c0-0.137,0.061-0.208,0.197-0.209c0.439-0.004,0.878-0.004,1.317,0
		c0.121,0.001,0.175,0.059,0.176,0.183c0.003,0.439,0.002,0.878,0,1.317c0,0.109-0.065,0.168-0.178,0.169
		C25.444,27.885,25.221,27.884,24.998,27.884z"/>
</g>
<g>
	<g>
		<path fill="#808080" d="M66.778,9.011c-0.199-0.41-0.465-0.771-0.792-1.088c-0.247-0.24-1.736-0.703-2.101-0.753
			c-0.112-0.015-0.227-0.013-0.342-0.051c0.894-0.615,1.421-1.452,1.536-2.525c0.115-1.076-0.224-2.016-0.979-2.78
			c-0.826-0.835-1.969-1.179-3.053-0.984c0.342,0.182,0.662,0.418,0.948,0.707c0.839,0.849,1.216,1.894,1.088,3.089
			c-0.127,1.192-0.713,2.122-1.706,2.806c0.128,0.042,0.256,0.04,0.38,0.057c0.406,0.056,2.06,0.569,2.335,0.836
			c0.363,0.352,0.659,0.753,0.88,1.209c0.159,0.329,0.249,0.672,0.247,1.043c-0.006,0.948-0.003,1.895-0.001,2.843
			c0.296,0,0.599,0,0.922,0c0.104,0,0.195-0.03,0.282-0.082c0.16-0.095,0.303-0.217,0.462-0.311
			c0.107-0.063,0.115-0.134,0.115-0.236C66.997,11.844,66.994,10.897,67,9.95C67.002,9.616,66.921,9.307,66.778,9.011z"/>
	</g>
	<g>
		<g>
			<path fill="#808080" d="M55.212,8.034c-1.036-0.712-1.682-1.656-1.864-2.883c-0.185-1.247,0.137-2.37,0.95-3.329
				c1.683-1.984,4.476-1.955,6.169-0.243c0.918,0.929,1.33,2.072,1.19,3.379c-0.139,1.304-0.78,2.322-1.867,3.069
				c0.14,0.046,0.28,0.044,0.416,0.063c0.444,0.061,2.253,0.623,2.554,0.915c0.397,0.385,0.721,0.824,0.963,1.322
				c0.174,0.36,0.273,0.735,0.27,1.141c-0.008,1.151-0.004,2.303-0.001,3.454c0,0.123-0.009,0.21-0.139,0.287
				c-0.193,0.114-0.367,0.263-0.562,0.378c-0.107,0.063-0.217,0.099-0.343,0.099c-4.449-0.001-6.522-0.001-10.971-0.001
				c-0.225,0-0.414-0.067-0.563-0.248c-0.093-0.112-0.211-0.203-0.341-0.272C51.017,15.136,51,15.097,51,15.036
				c0.001-1.267-0.004-2.533,0.005-3.8c0.002-0.268,0.096-0.523,0.202-0.771c0.153-0.361,0.359-0.691,0.606-0.991
				c0.279-0.34,0.574-0.668,0.981-0.865c0.227-0.109,1.538-0.457,1.882-0.499C54.849,8.089,55.021,8.061,55.212,8.034z"/>
		</g>
	</g>
</g>
<g>
	<rect x="35" y="1" fill="#808080" width="3.696" height="3.696"/>
	<rect x="40.152" y="1" fill="#808080" width="3.696" height="3.696"/>
	<rect x="45.304" y="1" fill="#808080" width="3.696" height="3.696"/>
	<rect x="45.304" y="6.152" fill="#808080" width="3.696" height="3.696"/>
	<rect x="40.152" y="6.152" fill="#808080" width="3.696" height="3.696"/>
	<rect x="35" y="6.152" fill="#808080" width="3.696" height="3.696"/>
	<rect x="35" y="11.304" fill="#808080" width="3.696" height="3.696"/>
	<rect x="40.152" y="11.304" fill="#808080" width="3.696" height="3.696"/>
	<rect x="45.304" y="11.304" fill="#808080" width="3.696" height="3.696"/>
</g>
<g>
	<path fill="#808080" d="M25,0.665c0.435,0,0.87,0,1.305,0c0.781,0.001,1.368,0.587,1.368,1.367c0,0.177-0.003,0.355,0.001,0.532
		c0.002,0.086-0.033,0.117-0.118,0.117c-0.373-0.002-0.746-0.003-1.118,0c-0.088,0.001-0.117-0.037-0.115-0.12
		c0.003-0.142-0.002-0.284,0.001-0.426c0.002-0.082-0.022-0.122-0.113-0.121c-0.808,0.002-1.615,0.002-2.423,0
		c-0.079,0-0.112,0.029-0.111,0.11c0.003,0.146-0.002,0.293,0.001,0.439c0.002,0.085-0.031,0.119-0.117,0.118
		c-0.373-0.002-0.746-0.001-1.118-0.001c-0.055,0-0.115,0-0.113-0.077c0.011-0.369-0.051-0.742,0.096-1.103
		c0.198-0.487,0.685-0.832,1.215-0.835C24.094,0.663,24.547,0.665,25,0.665z"/>
	<path fill="#808080" d="M32.188,3.434c-0.284-0.115-0.577-0.101-0.869-0.106l-0.001-0.003c-0.043,0-0.09,0-0.135,0
		c-0.001,0-0.002,0-0.003,0h-0.001c-3.045,0.004-9.553,0.004-12.49,0c-0.001,0-0.002,0.005-0.003,0.006
		c-0.189-0.002-0.378-0.007-0.568,0.021c-0.61,0.09-1.116,0.65-1.116,1.263c-0.002,3.142-0.001,6.285,0,9.427
		c0,0.496,0.364,1.001,0.822,1.188c0.28,0.114,0.567,0.098,0.854,0.102l0.001,0.004c2.982-0.005,9.666-0.005,12.649,0l0.001-0.003
		c0.142,0,0.284,0.003,0.425-0.002c0.647-0.022,1.244-0.629,1.245-1.275c0.003-3.151,0.002-6.302,0-9.453
		C32.998,4.124,32.629,3.613,32.188,3.434z M25.071,4.796c1.827,1.042,3.008,2.572,3.008,2.572
		c-2.131-1.144-4.861-1.204-4.861-1.204C24.363,5.098,25.07,4.795,25.071,4.796z M25.614,9.267c0,0.316-0.256,0.571-0.571,0.571
		c-0.316,0-0.571-0.255-0.571-0.571s0.255-0.571,0.571-0.571C25.358,8.696,25.614,8.951,25.614,9.267z M20.562,9.259
		c1.041-1.829,2.572-3.009,2.572-3.009c-1.143,2.131-1.204,4.861-1.204,4.861C20.864,9.967,20.562,9.26,20.562,9.259z
		 M25.029,13.763c-1.828-1.042-3.008-2.573-3.008-2.573c2.131,1.144,4.86,1.204,4.86,1.204C25.737,13.46,25.03,13.764,25.029,13.763
		z M26.94,12.314c1.144-2.13,1.204-4.86,1.204-4.86c1.065,1.144,1.369,1.851,1.368,1.852C28.471,11.134,26.94,12.314,26.94,12.314z"
		/>
</g>
<path fill="#808080" d="M13.864,11.644c0.182,0.182,0.182,0.476,0,0.658l-1.562,1.562c-0.182,0.182-0.476,0.182-0.658,0L8,10.219
	l-3.644,3.644c-0.182,0.182-0.476,0.182-0.658,0l-1.562-1.562c-0.182-0.182-0.182-0.476,0-0.658L5.781,8L2.136,4.356
	c-0.182-0.182-0.182-0.476,0-0.658l1.562-1.562c0.182-0.182,0.476-0.182,0.658,0L8,5.781l3.644-3.644
	c0.182-0.182,0.476-0.182,0.658,0l1.562,1.562c0.182,0.182,0.182,0.476,0,0.658L10.219,8L13.864,11.644z"/>
<g>
	<path fill="#808080" d="M27.205,89.386c0.302,0.12,0.587,0.225,0.865,0.345c0.316,0.136,0.535,0.359,0.615,0.71
		c0.075,0.325,0.168,0.647,0.263,0.968c0.042,0.142-0.013,0.222-0.117,0.31c-1.17,0.996-2.335,1.995-3.502,2.994
		c-0.861,0.737-1.72,1.475-2.58,2.212c-0.224,0.191-0.243,0.186-0.3-0.095c-0.03-0.149-0.066-0.298-0.085-0.449
		c-0.072-0.584-0.376-0.978-0.933-1.179c-0.213-0.077-0.413-0.194-0.629-0.261c-0.199-0.062-0.161-0.126-0.041-0.229
		c0.509-0.435,1.016-0.871,1.525-1.306c0.74-0.632,1.482-1.263,2.222-1.895c0.798-0.682,1.594-1.365,2.389-2.049
		C26.994,89.377,27.096,89.323,27.205,89.386z"/>
	<path fill="#808080" d="M31.267,89.339c-0.05,0.305-0.293,0.546-0.552,0.773c-0.251,0.22-0.51,0.432-0.761,0.652
		c-0.128,0.113-0.191,0.108-0.227-0.076c-0.083-0.417-0.173-0.833-0.362-1.22c-0.066-0.135-0.158-0.232-0.29-0.307
		c-0.273-0.153-0.553-0.284-0.853-0.372c-0.078-0.023-0.15-0.071-0.224-0.109c-0.056-0.029-0.091-0.078-0.031-0.123
		c0.478-0.355,0.839-0.874,1.427-1.073c0.586-0.199,1.12-0.061,1.545,0.383C31.316,88.264,31.433,88.747,31.267,89.339z"/>
	<path fill="#808080" d="M18.69,98.351c0.199-0.504,0.39-0.981,0.577-1.461c0.138-0.353,0.273-0.706,0.401-1.063
		c0.082-0.228,0.144-0.273,0.371-0.179c0.308,0.126,0.608,0.272,0.912,0.407c0.409,0.181,0.503,0.563,0.601,0.939
		c0.053,0.205,0.084,0.417,0.128,0.625c0.027,0.124-0.003,0.201-0.14,0.235c-0.913,0.226-1.824,0.464-2.739,0.683
		C18.544,98.6,18.731,98.399,18.69,98.351z"/>
</g>
<path fill="#808080" d="M47.897,89.932l-1.593-1.593c-0.137-0.137-0.359-0.137-0.495,0l-5.327,5.327l-2.289-2.289
	c-0.137-0.137-0.359-0.137-0.495,0l-1.595,1.595c-0.137,0.137-0.137,0.359,0,0.495l1.934,1.934l0,0l2.203,2.203
	c0.137,0.137,0.359,0.137,0.495,0l7.162-7.178C48.034,90.291,48.034,90.069,47.897,89.932z"/>
<path fill="#808080" d="M65.544,84.973H52.456c-0.804,0-1.456,0.812-1.456,1.813v8.858c0,1.001,0.652,1.813,1.456,1.813h7.469
	c0,0.591,0,1.383,0,2.448c0,2.703,1.732-0.325,2.799-2.448h2.82c0.804,0,1.456-0.812,1.456-1.813v-8.858
	C67,85.784,66.348,84.973,65.544,84.973z M61.922,93.853h-9.259v-1.979h9.259V93.853z M65.337,90.555H52.663v-1.98h12.674V90.555z"
	/>
<g>
	<path fill="#808080" d="M76,16c-0.746-0.014-1.427-0.216-2.004-0.707c-0.115-0.098-0.255-0.079-0.379-0.092
		c-0.767-0.076-1.526-0.203-2.271-0.397c-0.752-0.197-1.494-0.433-2.134-0.898c-0.332-0.242-0.605-0.53-0.695-0.959
		c-0.045-0.211,0.007-0.391,0.088-0.571c0.218-0.488,0.52-0.93,0.786-1.392c0.708-1.228,1.271-2.51,1.484-3.927
		c0.082-0.544,0.124-1.091,0.17-1.638c0.066-0.78,0.216-1.539,0.659-2.206c0.482-0.726,1.063-1.345,1.894-1.681
		c0.057-0.023,0.118-0.044,0.134-0.122c0.106-0.539,0.471-0.878,0.934-1.096c0.888-0.418,1.794-0.425,2.681,0.019
		c0.439,0.22,0.745,0.566,0.872,1.051c0.023,0.087,0.057,0.136,0.142,0.176c0.628,0.297,1.152,0.724,1.603,1.253
		c0.33,0.387,0.623,0.791,0.801,1.271c0.157,0.421,0.231,0.861,0.253,1.307c0.06,1.224,0.196,2.435,0.632,3.592
		c0.361,0.958,0.83,1.863,1.369,2.731c0.162,0.261,0.323,0.522,0.43,0.813c0.119,0.324,0.008,0.608-0.169,0.868
		c-0.296,0.432-0.737,0.681-1.2,0.89c-0.92,0.415-1.899,0.627-2.887,0.797c-0.313,0.054-0.631,0.079-0.947,0.113
		c-0.134,0.014-0.24,0.077-0.341,0.159c-0.42,0.341-0.904,0.531-1.437,0.613C76.313,15.989,76.158,16.002,76,16z M75.843,10.41
		c-0.522-0.015-1.192,0.021-1.862,0.1c-0.756,0.09-1.498,0.233-2.212,0.499c-0.403,0.15-0.79,0.34-1.099,0.651
		c-0.423,0.427-0.373,0.871,0.127,1.202c0.184,0.122,0.384,0.212,0.591,0.29c0.605,0.228,1.237,0.336,1.874,0.431
		c0.106,0.016,0.14-0.031,0.118-0.109c-0.068-0.238-0.009-0.474,0.007-0.708c0.034-0.497,0.08-0.539,0.488-0.696
		c0.507-0.195,1.043-0.269,1.582-0.283c0.579-0.015,1.161-0.036,1.737,0.064c0.359,0.063,0.72,0.121,1.053,0.279
		c0.143,0.067,0.278,0.151,0.326,0.315c0.095,0.329,0.096,0.664,0.049,1c-0.015,0.105,0,0.13,0.109,0.122
		c0.307-0.023,0.609-0.079,0.907-0.149c0.58-0.135,1.165-0.264,1.654-0.643c0.32-0.248,0.392-0.589,0.176-0.932
		c-0.159-0.252-0.391-0.424-0.649-0.564c-1.048-0.571-2.202-0.718-3.363-0.834C76.97,10.397,76.482,10.412,75.843,10.41z"/>
</g>
<g>
	<path fill="#808080" d="M15.997,23.082c0,1.128,0.006,2.256-0.003,3.385c-0.004,0.469-0.212,0.834-0.595,1.078
		c-0.418,0.266-0.856,0.491-1.321,0.651c-0.325,0.111-0.66,0.175-0.998,0.227c-0.311,0.048-0.624,0.052-0.934,0.035
		c-0.452-0.026-0.889-0.129-1.297-0.352c-0.608-0.333-1.212-0.679-1.873-0.891c-0.362-0.116-0.729-0.204-1.106-0.242
		c-0.155-0.015-0.31-0.036-0.465-0.04c-0.407-0.011-0.806,0.054-1.201,0.15c-0.677,0.164-1.327,0.412-1.961,0.709
		c-0.346,0.162-0.679,0.349-1.015,0.532c-0.107,0.058-0.22,0.094-0.343,0.044c-0.174-0.072-0.204-0.232-0.225-0.397
		c-0.004-0.031-0.001-0.063-0.001-0.094c0-2.235-0.005-4.471,0.004-6.706c0.002-0.487,0.226-0.863,0.643-1.099
		c0.702-0.398,1.432-0.728,2.192-0.981c0.487-0.162,0.981-0.284,1.493-0.33c0.494-0.044,0.979,0.011,1.461,0.115
		c0.776,0.167,1.481,0.519,2.168,0.917c0.414,0.24,0.852,0.404,1.322,0.457c0.484,0.055,0.964,0.015,1.445-0.073
		c0.561-0.103,1.086-0.307,1.589-0.579c0.162-0.088,0.318-0.188,0.477-0.281c0.04-0.023,0.083-0.041,0.129-0.053
		c0.264-0.071,0.381,0.072,0.414,0.32c0.005,0.034,0.001,0.07,0.001,0.105C15.997,20.818,15.997,21.95,15.997,23.082z"/>
	<path fill="#808080" d="M2.014,25.896c0,1.809,0,4.636,0.001,6.446c0,0.122-0.027,0.227-0.119,0.307
		c-0.055,0.048-0.115,0.079-0.189,0.079c-0.236-0.002-0.473,0-0.709-0.001c-0.168-0.001-0.301-0.133-0.314-0.311
		c-0.003-0.042-0.001-0.084-0.001-0.126c0-3.556,0-8.129,0-11.685c0-0.268,0-0.268-0.194-0.429c-0.446-0.37-0.61-0.998-0.396-1.551
		c0.31-0.798,1.148-1.117,1.863-0.739c0.688,0.363,0.938,1.321,0.523,1.968c-0.104,0.163-0.229,0.305-0.382,0.419
		c-0.063,0.047-0.084,0.103-0.084,0.185C2.015,22.271,2.014,24.084,2.014,25.896z"/>
</g>
<path fill="#808080" d="M6.531,117.998c-0.598,0-1.083-0.342-1.083-0.764v-7.496H3.171c0,0-0.496,0.047-0.615-0.252
	c-0.117-0.292,0.197-0.764,0.197-0.764l4.634-6.177c0,0,0.366-0.554,0.606-0.546c0.241,0.006,0.623,0.57,0.623,0.57l4.631,6.171
	c0,0,0.343,0.488,0.175,0.799c-0.133,0.244-0.83,0.201-0.83,0.201H10.54v7.496c0,0.422-0.485,0.764-1.083,0.764L6.531,117.998
	L6.531,117.998z"/>
<polygon fill="#808080" points="28.587,105.444 25,101.999 21.413,105.444 17.826,108.888 17.826,117.999 23.042,117.999 
	23.042,112.547 26.958,112.547 26.958,117.999 32.174,117.999 32.174,108.888 "/>
<path fill="#808080" d="M83.531,98.24l-4.104-4.106c0.517-0.898,0.835-1.923,0.835-3.031c0-3.381-2.75-6.131-6.131-6.131
	S68,87.722,68,91.103c0,3.378,2.75,6.128,6.131,6.128c1.109,0,2.135-0.319,3.033-0.835l4.104,4.107
	c0.313,0.313,0.722,0.469,1.131,0.469c0.409,0,0.819-0.156,1.131-0.469C84.156,99.878,84.156,98.865,83.531,98.24z M71.2,91.103
	c0-1.616,1.316-2.931,2.931-2.931s2.931,1.316,2.931,2.931c0,0.807-0.329,1.538-0.859,2.068c0,0-0.001,0-0.001,0
	c0,0-0.001,0.001-0.001,0.002c-0.531,0.53-1.263,0.858-2.071,0.858C72.516,94.031,71.2,92.718,71.2,91.103z"/>
</svg>
